<?xml version="1.0" encoding="UTF-8"?>
<svg version="1.1" xmlns="http://www.w3.org/2000/svg" width="512" height="142">
<path d="M0 0 C14.3610942 -0.11729269 28.7221131 -0.20487786 43.08358955 -0.25906086 C49.75334798 -0.28507545 56.42269666 -0.32032449 63.09228516 -0.37719727 C69.5373334 -0.43180698 75.98207194 -0.46148171 82.42733383 -0.47438622 C84.87755071 -0.48357419 87.327752 -0.50151534 89.77783585 -0.52865028 C120.46699574 -0.85479975 120.46699574 -0.85479975 133.09765625 9.98828125 C141.3648815 18.73082951 143.54120416 28.5686316 143.30859375 40.28125 C141.80117695 58.44657654 135.38195417 75.72308993 121.5859375 88.1796875 C116.31953284 92.50042198 110.74059917 96.33932807 105 100 C105.57105469 100.72960937 106.14210937 101.45921875 106.73046875 102.2109375 C112.4360926 109.54383588 117.94471325 117.00164077 123.35620117 124.55419922 C123.87287354 125.27494629 124.3895459 125.99569336 124.921875 126.73828125 C125.42654297 127.44291504 125.93121094 128.14754883 126.45117188 128.87353516 C128.51766659 131.71073077 130.65631001 134.49067855 132.80957031 137.26245117 C134 139 134 139 135 142 C129.16541848 142.27316172 123.33459697 142.47205699 117.49511719 142.60424805 C115.51203564 142.65936957 113.52939727 142.73429634 111.54785156 142.82983398 C95.08701366 143.60324521 95.08701366 143.60324521 89.99194336 139.68920898 C87.92773501 136.86651635 86.45426686 134.17231482 85 131 C83.87662118 129.21483761 82.73035214 127.44389007 81.5625 125.6875 C79.52408391 122.61692917 77.9557764 119.88437174 76.63476562 116.43041992 C74.8515999 112.16083228 72.90143194 108.6401507 69 106 C60.34629065 103.45462715 50.84833968 104.36669793 41.9375 104.625 C39.42517814 104.64702229 36.9127923 104.66271341 34.40039062 104.671875 C28.26428849 104.70800453 22.13357617 104.82322716 16 105 C16.13797803 103.2654157 16.28168295 101.53128646 16.42773438 99.79736328 C16.50713257 98.83162384 16.58653076 97.8658844 16.66833496 96.87088013 C17.14865142 92.71327887 18.24282425 88.85485922 19.5 84.875 C19.72558594 84.1221875 19.95117188 83.369375 20.18359375 82.59375 C21.84170049 77.15829951 21.84170049 77.15829951 23 76 C25.00239849 75.89724033 27.00840359 75.86427341 29.01342773 75.8581543 C30.30244492 75.85111984 31.5914621 75.84408539 32.91954041 75.83683777 C33.61368483 75.83502188 34.30782925 75.83320599 35.02300835 75.83133507 C37.19765249 75.82417244 39.37207059 75.80850276 41.54664612 75.78999329 C47.73182866 75.73754948 53.91689541 75.68965548 60.10229492 75.67407227 C63.88384069 75.66392015 67.66482923 75.63440341 71.44615364 75.59275246 C72.88083721 75.58052683 74.31559988 75.57530561 75.75033379 75.57755089 C86.10075725 75.58974949 95.19474986 75.06089164 102.875 67.5 C108.94077617 59.74211606 110.8085454 50.49043604 110.4375 40.796875 C110.14898794 37.78895227 110.14898794 37.78895227 108.0625 34.8125 C99.4644306 29.72384668 89.24081175 30.73721477 79.58984375 30.8046875 C78.01087118 30.80842408 76.43189627 30.811268 74.85292053 30.81326294 C70.72491905 30.8208487 66.59706141 30.84045289 62.46911621 30.8626709 C58.24570663 30.88323912 54.0222735 30.89228799 49.79882812 30.90234375 C41.53248655 30.92370426 33.26626124 30.95777806 25 31 C20.02002891 47.78264404 15.72689197 64.72212068 11.52075195 81.71099854 C10.65701046 85.19663889 9.78929381 88.68128893 8.921875 92.16601562 C6.34117627 102.53794701 3.7631151 112.91052124 1.19921875 123.28662109 C0.65370615 125.4866686 0.10813672 127.68670202 -0.4375 129.88671875 C-0.6845166 130.89080276 -0.9315332 131.89488678 -1.18603516 132.92939758 C-1.41210449 133.83916855 -1.63817383 134.74893951 -1.87109375 135.6862793 C-2.06630615 136.47640915 -2.26151855 137.266539 -2.46264648 138.08061218 C-3 140 -3 140 -4 142 C-13.9 142 -23.8 142 -34 142 C-35.39838144 139.20323711 -34.62488686 137.81497019 -33.84765625 134.8046875 C-33.56986328 133.71293213 -33.29207031 132.62117676 -33.00585938 131.49633789 C-32.69455078 130.30129639 -32.38324219 129.10625488 -32.0625 127.875 C-31.57603902 125.96948894 -31.08959286 124.063974 -30.60385132 122.15827942 C-30.0884288 120.13964222 -29.5700519 118.12178002 -29.05126953 116.10400391 C-27.50926911 110.09660129 -26.00372261 104.08008897 -24.50009155 98.06298828 C-23.9980742 96.05479634 -23.49478993 94.04692457 -22.99145508 92.0390625 C-21.32306935 85.37309329 -19.67837984 78.70220497 -18.078125 72.01953125 C-17.92291382 71.37204422 -17.76770264 70.72455719 -17.60778809 70.05744934 C-16.87826975 67.01084526 -16.15288659 63.96334251 -15.43359375 60.91430664 C-13.77062555 53.9342434 -11.89578665 47.04303199 -9.89697266 40.15185547 C-8.83226429 36.41059662 -7.92179442 32.66856705 -7.0625 28.875 C-5.58047981 22.37738423 -3.99649493 15.90843567 -2.37109375 9.4453125 C-2.14192261 8.53144775 -1.91275146 7.61758301 -1.67663574 6.67602539 C-1.11843791 4.45051176 -0.55954852 2.22517434 0 0 Z " fill="#7113F5" transform="translate(35,0)"/>
<path d="M0 0 C0.90814453 -0.00860046 1.81628906 -0.01720093 2.75195312 -0.02606201 C3.7565155 -0.03032196 4.76107788 -0.03458191 5.79608154 -0.03897095 C7.37431702 -0.05123718 7.37431702 -0.05123718 8.98443604 -0.06375122 C12.48772609 -0.08868148 15.99097515 -0.10514844 19.49432373 -0.11953735 C20.69076256 -0.12486103 21.88720139 -0.13018471 23.11989594 -0.13566971 C29.46312317 -0.16244541 35.80633051 -0.18179859 42.14959717 -0.19619751 C48.68284781 -0.21277731 55.21558731 -0.25748673 61.74864578 -0.30856895 C66.78467334 -0.34235699 71.82058195 -0.35378817 76.85671234 -0.35942459 C79.26308813 -0.36611445 81.66945672 -0.38127689 84.07572174 -0.4053154 C101.37404789 -0.56814187 114.94686297 0.16781673 128.41619873 12.27890015 C133.92646445 17.95983782 136.22457286 25.36279441 136.79119873 33.15390015 C136.84276123 33.78167358 136.89432373 34.40944702 136.94744873 35.0562439 C137.76119663 53.26385307 130.10645775 69.95243359 118.35369873 83.34140015 C106.96557717 95.6230805 92.86766248 103.86749437 75.79119873 105.15390015 C70.86401665 105.28601415 65.93841116 105.27066054 61.00994873 105.2515564 C59.58648732 105.24968817 58.16302527 105.24826618 56.73956299 105.24726868 C53.01766136 105.24347533 49.2957996 105.23367271 45.57391357 105.2225647 C41.76613911 105.21228167 37.95835812 105.20775638 34.15057373 105.20272827 C26.69743068 105.19204717 19.24432032 105.1750096 11.79119873 105.15390015 C10.87264814 101.0914428 10.92743151 98.5076841 11.97088623 94.45077515 C12.24030029 93.38858765 12.50971436 92.32640015 12.78729248 91.23202515 C13.07733154 90.1337439 13.36737061 89.03546265 13.66619873 87.90390015 C13.94850342 86.79015015 14.23080811 85.67640015 14.52166748 84.52890015 C16.63702693 76.30807194 16.63702693 76.30807194 17.79119873 75.15390015 C19.54291941 75.04110491 21.2991141 74.99709654 23.05438232 74.98031616 C24.1800058 74.96682632 25.30562927 74.95333649 26.46536255 74.93943787 C28.30887802 74.92378029 28.30887802 74.92378029 30.18963623 74.9078064 C32.77948298 74.87483839 35.36932665 74.84162729 37.95916748 74.80819702 C42.05141069 74.75992989 46.1436828 74.71625112 50.23602295 74.67709351 C54.17903329 74.63879007 58.12179299 74.58559097 62.06463623 74.5328064 C63.27340424 74.52439224 64.48217224 74.51597809 65.72756958 74.50730896 C76.44611092 74.35315548 87.03597353 74.12591083 95.40838623 66.72421265 C101.13538308 60.76927562 103.92089171 53.03752877 104.29119873 44.84140015 C104.08975611 40.31613555 102.86980187 37.5745703 99.79119873 34.15390015 C94.79311847 30.53460065 87.58012897 31.02951679 81.66253662 31.04037476 C80.98851807 31.04022873 80.31449951 31.0400827 79.62005615 31.03993225 C77.41795501 31.04062245 75.21594113 31.04837251 73.01385498 31.0562439 C71.47686306 31.05811125 69.93987054 31.05953366 68.40287781 31.06053162 C64.37682422 31.06433177 60.35080727 31.07414045 56.32476807 31.0852356 C52.20876562 31.09550374 48.0927572 31.10004077 43.97674561 31.10507202 C35.91487992 31.11576518 27.8530439 31.13281124 19.79119873 31.15390015 C19.16339574 33.49789628 18.53630684 35.84207977 17.90960693 38.18637085 C17.73469978 38.83912239 17.55979263 39.49187393 17.37958527 40.16440582 C15.67493079 46.54501454 14.0637138 52.94727146 12.47164917 59.35693359 C11.95884813 61.42131256 11.44440611 63.4852774 10.92962646 65.54916382 C9.58006258 70.96143027 8.23354969 76.37445374 6.88787842 81.78768921 C3.47434241 95.51595572 0.02881817 109.23598576 -3.47177124 122.94232178 C-3.8782823 124.53579243 -4.28362576 126.12956142 -4.68777466 127.72363281 C-5.25129511 129.94475869 -5.81928357 132.16469408 -6.38848877 134.3843689 C-6.55795517 135.05583954 -6.72742157 135.72731018 -6.90202332 136.41912842 C-8.09453939 141.03963827 -8.09453939 141.03963827 -9.20880127 142.15390015 C-11.42735391 142.24173556 -13.64868623 142.26084623 -15.86895752 142.2515564 C-16.86565712 142.24943398 -16.86565712 142.24943398 -17.88249207 142.24726868 C-20.01214026 142.24165533 -22.14168466 142.22910068 -24.27130127 142.21640015 C-25.71205496 142.21138686 -27.1528103 142.20682366 -28.59356689 142.20272827 C-32.13201229 142.1916816 -35.67039666 142.17440806 -39.20880127 142.15390015 C-38.63993758 134.79072081 -37.04167393 127.89290828 -35.20193481 120.74923706 C-34.62470575 118.50753261 -34.0547102 116.26408979 -33.48638916 114.02011108 C-32.83302172 111.44071839 -32.17913142 108.86146685 -31.52323914 106.28271484 C-29.43899912 98.08488847 -27.38358574 89.87992589 -25.33380127 81.6734314 C-25.16308672 80.98999098 -24.99237217 80.30655056 -24.81648445 79.60239983 C-23.9410267 76.09725164 -23.06583638 72.59203675 -22.19076538 69.08679199 C-21.17664582 65.02489972 -20.16152291 60.96325878 -19.14605713 56.90170288 C-18.90097554 55.92128824 -18.90097554 55.92128824 -18.6509428 54.92106724 C-17.83435708 51.65469126 -17.01726552 48.38844312 -16.19926453 45.12242126 C-14.63518658 38.87523091 -13.07657975 32.62679093 -11.53327465 26.37443161 C-10.79428374 23.38178199 -10.05273607 20.38976856 -9.31097603 17.39780426 C-8.95561174 15.96128729 -8.60151681 14.52445568 -8.24873161 13.08730316 C-7.7614396 11.10254117 -7.26954144 9.11891174 -6.77740479 7.13534546 C-6.49800552 6.00203796 -6.21860626 4.86873047 -5.93074036 3.70108032 C-4.80333938 -0.27666998 -3.90476131 0.02742537 0 0 Z " fill="#6011F4" transform="translate(211.20880126953125,-0.153900146484375)"/>
<path d="M0 0 C0.87884354 -0.00029205 1.75768707 -0.00058411 2.66316223 -0.00088501 C5.54711022 0.00050028 8.43079481 0.01602359 11.31469727 0.03173828 C13.32251342 0.03547126 15.3303314 0.03831689 17.33815002 0.04031372 C22.6070972 0.04792773 27.87593305 0.067557 33.14483643 0.08972168 C38.52761327 0.11022827 43.9104082 0.11932572 49.29321289 0.12939453 C59.84339185 0.15080504 70.3934884 0.18491396 80.94360352 0.22705078 C80.00805728 10.77639265 80.00805728 10.77639265 78.78735352 15.32470703 C78.56950195 16.14519531 78.35165039 16.96568359 78.12719727 17.81103516 C77.90161133 18.62894531 77.67602539 19.44685547 77.44360352 20.28955078 C77.21801758 21.14226563 76.99243164 21.99498047 76.76000977 22.87353516 C75.08766193 29.08299237 75.08766193 29.08299237 73.94360352 30.22705078 C71.65109699 30.34077942 69.35507959 30.38395237 67.05981445 30.40063477 C66.33927887 30.40732178 65.61874329 30.41400879 64.87637329 30.42089844 C63.30437691 30.43498794 61.73235959 30.44686944 60.16033173 30.45684624 C57.6614392 30.47325312 55.16269732 30.49649966 52.66387939 30.52174377 C45.55602571 30.59246503 38.4481046 30.65215921 31.34008789 30.70385742 C26.9945933 30.73594617 22.64926212 30.7773128 18.30390167 30.82405281 C16.65677131 30.83991983 15.00960321 30.85231058 13.36241913 30.86096001 C-5.62692807 30.84691978 -5.62692807 30.84691978 -23.36889648 36.91455078 C-24.04621826 37.27121826 -24.72354004 37.62788574 -25.42138672 37.99536133 C-38.08136515 44.86321271 -45.79278032 55.45557057 -50.05639648 69.22705078 C-52.77760692 79.25411965 -53.11536215 89.78712615 -48.34545898 99.25830078 C-44.45965398 105.19298478 -38.85989745 108.53832465 -32.05639648 110.22705078 C-27.05408274 111.05733766 -22.16264843 111.39100798 -17.1015625 111.43237305 C-16.33976181 111.44227264 -15.57796112 111.45217224 -14.79307556 111.46237183 C-12.29884853 111.49371976 -9.80460252 111.51863749 -7.31030273 111.54345703 C-5.57152335 111.56404969 -3.83274872 111.58504673 -2.09397888 111.60643005 C2.46467221 111.66141215 7.02336668 111.71092586 11.58209229 111.75927734 C16.24104638 111.80966748 20.89993812 111.8652618 25.55883789 111.92041016 C34.68703972 112.02769951 43.81529588 112.12920839 52.94360352 112.22705078 C52.00826298 121.6497733 52.00826298 121.6497733 50.78735352 126.19189453 C50.56950195 127.01109375 50.35165039 127.83029297 50.12719727 128.67431641 C49.90161133 129.49609375 49.67602539 130.31787109 49.44360352 131.16455078 C49.21801758 132.01339844 48.99243164 132.86224609 48.76000977 133.73681641 C47.09768861 139.9188806 47.09768861 139.9188806 45.94360352 142.22705078 C34.93788576 142.29682672 23.93222138 142.35000147 12.92632675 142.3824873 C7.8148182 142.39808565 2.70346195 142.41921642 -2.40795898 142.45336914 C-7.3487267 142.48617178 -12.2893487 142.50394755 -17.23021698 142.51168251 C-19.10709677 142.51718873 -20.98396936 142.52794012 -22.86078644 142.54424095 C-41.01131972 142.69549158 -56.01298976 140.56315969 -69.78662109 127.72680664 C-77.8718859 119.74971473 -82.27893698 110.38784304 -84.05639648 99.22705078 C-84.23299805 98.12103516 -84.40959961 97.01501953 -84.59155273 95.87548828 C-86.2840473 80.79092508 -82.94631138 64.70644825 -76.05639648 51.22705078 C-75.59233398 50.28732422 -75.12827148 49.34759766 -74.65014648 48.37939453 C-71.40332711 42.10163472 -67.59774446 36.62835614 -63.05639648 31.22705078 C-62.14760742 30.09976562 -62.14760742 30.09976562 -61.22045898 28.94970703 C-56.19375511 22.94843812 -50.57981323 18.52038966 -44.05639648 14.22705078 C-42.66614258 13.29699219 -42.66614258 13.29699219 -41.24780273 12.34814453 C-33.25857801 7.32913361 -25.06539577 4.72487301 -16.05639648 2.22705078 C-14.48770058 1.70680832 -14.48770058 1.70680832 -12.88731384 1.17605591 C-8.46685266 0.0810074 -4.52833349 -0.03988392 0 0 Z " fill="#551EF5" transform="translate(429.056396484375,-0.22705078125)"/>
</svg>
