<svg viewBox="0 0 256 256" xmlns="http://www.w3.org/2000/svg" role="img" aria-label="RPCortex">
  <defs>
    <linearGradient id="rpc-die" x1="0%" y1="0%" x2="100%" y2="100%">
      <stop offset="0%"  stop-color="#5eead4"/>
      <stop offset="50%" stop-color="#2dd4be"/>
      <stop offset="100%" stop-color="#fb923c"/>
    </linearGradient>
    <linearGradient id="rpc-pin" x1="0%" y1="0%" x2="100%" y2="100%">
      <stop offset="0%" stop-color="#5eead4"/>
      <stop offset="100%" stop-color="#fb923c"/>
    </linearGradient>
  </defs>

  <g fill="url(#rpc-pin)" opacity="0.9">
    <rect x="86"  y="52" width="14" height="20" rx="4"/>
    <rect x="121" y="52" width="14" height="20" rx="4"/>
    <rect x="156" y="52" width="14" height="20" rx="4"/>
    <rect x="86"  y="184" width="14" height="20" rx="4"/>
    <rect x="121" y="184" width="14" height="20" rx="4"/>
    <rect x="156" y="184" width="14" height="20" rx="4"/>
    <rect x="52"  y="86"  width="20" height="14" rx="4"/>
    <rect x="52"  y="121" width="20" height="14" rx="4"/>
    <rect x="52"  y="156" width="20" height="14" rx="4"/>
    <rect x="184" y="86"  width="20" height="14" rx="4"/>
    <rect x="184" y="121" width="20" height="14" rx="4"/>
    <rect x="184" y="156" width="20" height="14" rx="4"/>
  </g>

  <rect x="68" y="68" width="120" height="120" rx="30" fill="url(#rpc-die)"/>

  <!-- heartbeat (dark negative-space line; reads on the bright die on any bg) -->
  <path d="M86 128 L106 128 L116 100 L132 158 L144 116 L152 128 L170 128"
        fill="none" stroke="#0b1220" stroke-width="11"
        stroke-linecap="round" stroke-linejoin="round"/>
</svg>
