<svg viewBox="0 0 1280 420" xmlns="http://www.w3.org/2000/svg">
  <defs>
    <linearGradient id="die" x1="0%" y1="0%" x2="100%" y2="100%">
      <stop offset="0%"  stop-color="#5eead4"/>
      <stop offset="50%" stop-color="#2dd4be"/>
      <stop offset="100%" stop-color="#fb923c"/>
    </linearGradient>
    <linearGradient id="pin" x1="0%" y1="0%" x2="100%" y2="100%">
      <stop offset="0%" stop-color="#5eead4"/>
      <stop offset="100%" stop-color="#fb923c"/>
    </linearGradient>
    <linearGradient id="word" x1="0%" y1="0%" x2="100%" y2="0%">
      <stop offset="0%"  stop-color="#5eead4"/>
      <stop offset="62%" stop-color="#2dd4be"/>
      <stop offset="100%" stop-color="#fb923c"/>
    </linearGradient>
    <radialGradient id="glow" cx="20%" cy="42%" r="58%">
      <stop offset="0%" stop-color="#2dd4be" stop-opacity="0.20"/>
      <stop offset="100%" stop-color="#2dd4be" stop-opacity="0"/>
    </radialGradient>
  </defs>

  <rect x="0" y="0" width="1280" height="420" rx="44" fill="#0b1220"/>
  <rect x="0" y="0" width="1280" height="420" rx="44" fill="url(#glow)"/>
  <rect x="1" y="1" width="1278" height="418" rx="43" fill="none" stroke="#1e293b" stroke-width="2"/>

  <!-- chip mark -->
  <g transform="translate(92,82)">
    <g fill="url(#pin)" opacity="0.9">
      <rect x="86" y="52" width="14" height="20" rx="4"/>
      <rect x="121" y="52" width="14" height="20" rx="4"/>
      <rect x="156" y="52" width="14" height="20" rx="4"/>
      <rect x="86" y="184" width="14" height="20" rx="4"/>
      <rect x="121" y="184" width="14" height="20" rx="4"/>
      <rect x="156" y="184" width="14" height="20" rx="4"/>
      <rect x="52" y="86" width="20" height="14" rx="4"/>
      <rect x="52" y="121" width="20" height="14" rx="4"/>
      <rect x="52" y="156" width="20" height="14" rx="4"/>
      <rect x="184" y="86" width="20" height="14" rx="4"/>
      <rect x="184" y="121" width="20" height="14" rx="4"/>
      <rect x="184" y="156" width="20" height="14" rx="4"/>
    </g>
    <rect x="68" y="68" width="120" height="120" rx="30" fill="url(#die)"/>
    <path d="M86 128 L106 128 L116 100 L132 158 L144 116 L152 128 L170 128"
          fill="none" stroke="#0b1220" stroke-width="11"
          stroke-linecap="round" stroke-linejoin="round"/>
  </g>

  <!-- wordmark -->
  <text x="404" y="214" font-family="DejaVu Sans, Verdana, sans-serif" font-size="128"
        font-weight="bold" fill="url(#word)" letter-spacing="-2">RPCortex</text>
  <text x="408" y="276" font-family="DejaVu Sans, Verdana, sans-serif" font-size="38"
        fill="#94a3b8">A real OS for your microcontroller</text>
  <text x="408" y="326" font-family="DejaVu Sans, Verdana, sans-serif" font-size="27"
        font-weight="bold" fill="#5eead4" letter-spacing="2">VELA · v1.0.0</text>
</svg>
